<?xml version="1.0" encoding="UTF-8"?>
<svg id="Layer_2" data-name="Layer 2" xmlns="http://www.w3.org/2000/svg" xmlns:xlink="http://www.w3.org/1999/xlink" viewBox="0 0 12 12">
  <defs>
    <clipPath id="clippath">
      <rect width="12" height="12" fill="none"/>
    </clipPath>
  </defs>
  <g id="Text">
    <g id="Boatskeg">
      <g id="icon1">
        <g clip-path="url(#clippath)">
          <path d="M5.94,0C9.22,0,11.87,2.65,11.87,5.93c0,2.5-1.55,4.64-3.74,5.52l-.09-1.87h0c0-.37.16-.66.51-.81l.04-.02h0s0,0,0,0h0c.26-.11.46-.24.6-.49.18-.3.21-.7.21-1.04,0-.65-.19-1.43-.53-1.99-.24-.4-.61-.81-1.11-.81s-.88.41-1.11.81c-.33.57-.53,1.34-.53,1.99,0,.34.03.74.21,1.04.14.24.35.38.61.49,0,0,.01,0,.02,0h.02c.35.16.51.44.51.82h0s-.1,2.1-.1,2.1c-.48.12-.98.19-1.49.19s-1.05-.07-1.54-.2l-.09-1.97h0c0-.38.17-.68.52-.83l.05-.02h0s0,0,0,0c.25-.1.45-.24.59-.47.17-.3.21-.69.21-1.03,0-.03,0-.06,0-.1,0-.02,0-.04,0-.05v-.03s0-.02,0-.02l-.22-2.51h-.23s-.02,2.65-.02,2.65l-.38.04-.22-3h-.24s-.05,3.04-.05,3.04h-.13s-.06,0-.08,0-.06,0-.08,0h-.13s-.07-3.03-.07-3.03h-.24s-.2,2.98-.2,2.98l-.38-.04-.02-2.65h-.23l-.29,2.51v.02s0,.03,0,.03c0,.02,0,.04,0,.05,0,.03,0,.07,0,.1,0,.34.03.73.21,1.03.14.24.35.38.6.48,0,0,.01,0,.02,0h.03c.36.16.52.46.52.84h0s-.08,1.76-.08,1.76C1.55,10.58,0,8.44,0,5.93,0,2.65,2.66,0,5.94,0" fill="#005166" fill-rule="evenodd"/>
        </g>
      </g>
    </g>
  </g>
</svg>