<?xml version="1.0" encoding="UTF-8"?>
<svg id="Layer_2" data-name="Layer 2" xmlns="http://www.w3.org/2000/svg" xmlns:xlink="http://www.w3.org/1999/xlink" viewBox="0 0 12 12">
  <defs>
    <clipPath id="clippath">
      <rect width="12" height="12" fill="none"/>
    </clipPath>
  </defs>
  <g id="Text">
    <g id="Still_Fired" data-name="Still Fired">
      <g id="icon3">
        <g clip-path="url(#clippath)">
          <path d="M5.97,0c.39,0,.78.04,1.16.11.38.08.76.19,1.12.34.36.15.71.33,1.03.55.33.22.63.46.9.74.28.28.52.58.74.9.22.33.4.67.55,1.03.15.36.26.74.34,1.12.08.38.11.77.11,1.16s-.04.78-.11,1.16c-.08.38-.19.76-.34,1.12-.15.36-.33.71-.55,1.03-.22.33-.46.63-.74.9-.28.28-.58.52-.9.74-.33.22-.67.4-1.03.55-.36.15-.73.26-1.12.34-.38.08-.77.11-1.16.11s-.78-.04-1.16-.11c-.38-.08-.76-.19-1.12-.34-.36-.15-.71-.33-1.03-.55-.33-.22-.63-.46-.9-.74-.28-.28-.52-.58-.74-.9-.22-.33-.4-.67-.55-1.03-.15-.36-.26-.73-.34-1.12-.08-.38-.11-.77-.11-1.16s.04-.78.11-1.16c.08-.38.19-.76.34-1.12.15-.36.33-.71.55-1.03.22-.33.46-.63.74-.9.28-.28.58-.52.9-.74.33-.22.67-.4,1.03-.55.36-.15.73-.26,1.12-.34.38-.08.77-.11,1.16-.11" fill="#e5c392"/>
          <path d="M6.74,6.37c0,.42-.34.77-.77.77s-.77-.34-.77-.77.34-.77.77-.77c.42,0,.77.34.77.77M5.97,4.99c-.76,0-1.38.62-1.38,1.38s.62,1.38,1.38,1.38,1.38-.62,1.38-1.38-.62-1.38-1.38-1.38ZM5.97,8.13c-.97,0-1.76-.79-1.76-1.76s.79-1.76,1.76-1.76,1.76.79,1.76,1.76-.79,1.76-1.76,1.76ZM5.39,3.58h1.12c.07,0,.13.06.13.13s-.06.13-.13.13h-1.12c-.07,0-.13-.06-.13-.13s.06-.13.13-.13ZM9.03,4.08h-1.76l-.21-.57c-.05-.14-.18-.23-.33-.23h-1.53c-.15,0-.28.09-.33.23l-.21.57h-.74v-.13c0-.06-.05-.12-.12-.12h-.63c-.06,0-.12.05-.12.12v.13h-.16c-.27,0-.49.22-.49.49v3.58c0,.27.22.49.49.49h6.13c.27,0,.49-.22.49-.49v-3.58c0-.27-.22-.49-.49-.49Z" fill="#f6f7f2"/>
        </g>
      </g>
    </g>
  </g>
</svg>