<?xml version="1.0" encoding="UTF-8"?>
<svg id="Layer_2" data-name="Layer 2" xmlns="http://www.w3.org/2000/svg" viewBox="0 0 29.54 28.25">
  <g id="Map">
    <g id="_12" data-name="12">
      <g id="star12">
        <path d="M29.07,12.28l-6.01,5.86,1.42,8.27c.1.59-.14,1.18-.63,1.54-.27.2-.6.3-.92.3-.25,0-.5-.06-.73-.18l-7.43-3.9-7.43,3.9c-.53.28-1.17.23-1.65-.12-.48-.35-.73-.95-.62-1.54l1.41-8.27L.47,12.28c-.42-.42-.58-1.04-.39-1.61.18-.57.67-.98,1.27-1.07l8.3-1.21L13.36.88c.27-.54.81-.88,1.41-.88s1.14.34,1.41.88l3.71,7.52,8.31,1.21c.59.09,1.08.5,1.26,1.07.19.57.03,1.19-.39,1.61" fill="#c7985a"/>
      </g>
    </g>
  </g>
</svg>