<?xml version="1.0" encoding="UTF-8"?>
<svg id="Layer_2" data-name="Layer 2" xmlns="http://www.w3.org/2000/svg" xmlns:xlink="http://www.w3.org/1999/xlink" viewBox="0 0 12 12">
  <defs>
    <clipPath id="clippath">
      <rect width="12" height="12" fill="none"/>
    </clipPath>
  </defs>
  <g id="Text">
    <g id="Boatskeg">
      <g id="icon2">
        <g clip-path="url(#clippath)">
          <path d="M11.87,5.94c0,.39-.04.78-.11,1.16-.08.38-.19.75-.34,1.11-.15.36-.33.7-.55,1.03-.22.32-.46.62-.74.9-.28.28-.58.52-.9.74-.32.22-.67.4-1.03.55-.36.15-.73.26-1.11.34-.38.08-.77.11-1.16.11s-.78-.04-1.16-.11c-.38-.08-.75-.19-1.11-.34-.36-.15-.7-.33-1.03-.55-.32-.22-.62-.46-.9-.74-.28-.28-.52-.58-.74-.9-.22-.32-.4-.67-.55-1.03-.15-.36-.26-.73-.34-1.11C.04,6.71,0,6.33,0,5.94s.04-.78.11-1.16c.08-.38.19-.75.34-1.11.15-.36.33-.7.55-1.03.22-.32.46-.62.74-.9.28-.28.58-.52.9-.74.32-.22.67-.4,1.03-.55.36-.15.73-.26,1.11-.34C5.16.04,5.55,0,5.94,0s.78.04,1.16.11c.38.08.75.19,1.11.34.36.15.7.33,1.03.55.32.22.62.46.9.74.28.28.52.58.74.9.22.32.4.67.55,1.03.15.36.26.73.34,1.11.08.38.11.77.11,1.16" fill="#a2b6a6"/>
          <path d="M7.03,2.94c0,.15-.06.29-.16.4-.11.11-.24.16-.4.16s-.29-.05-.4-.16c-.11-.11-.16-.24-.16-.4s.06-.29.16-.4c.11-.11.24-.16.4-.16s.29.05.4.16c.11.11.16.24.16.4" fill="#f6f7f2"/>
          <path d="M4.91,6.51l-.47-.27s-.09-.06-.12-.09l-.22,1.12c-.02.08-.05.16-.1.23l-.87,1.22c-.05.07-.06.17-.02.24.04.08.12.13.21.13.07,0,.14-.03.18-.09l1.13-1.39.28-1.09" fill="#f6f7f2"/>
          <path d="M5.14,3.83c.05-.09.12-.16.21-.21l-.53-.33c-.15-.09-.35-.05-.45.1l-.26.42.79.49.25-.46" fill="#f6f7f2"/>
          <path d="M3.71,5.05l.58.37.52-.98-.8-.5-.42.66c-.05.07-.06.16-.04.24.02.08.07.16.15.2" fill="#f6f7f2"/>
          <path d="M8.15,5.37l-.26,2.98c.05.02.11.04.16.06l.27-3.08s-.01,0-.02,0h-.04s-.11.04-.11.04" fill="#f6f7f2"/>
          <path d="M8.39,4.59l.05-.6s-.03-.09-.08-.09c-.05,0-.09.03-.09.08l-.05.58s.06,0,.1.01c.02,0,.04.01.06.02" fill="#f6f7f2"/>
          <path d="M8.21,8.68c-.06-.03-.11-.07-.17-.1l-.05.59s-.04.08-.08.08h0s-.08-.04-.08-.09l.06-.65c-.39-.15-.83-.17-1.25-.04l-.67.21-1.42.45v.36h4.25v-.38c-.17-.15-.37-.29-.58-.43" fill="#f6f7f2"/>
          <path d="M5.29,3.9l-.29.54-.6,1.12h0s-.02.04-.02.04c-.05.09-.06.2-.02.29,0,0,0,0,0,0,.03.08.09.15.16.2l.53.3.91.51s.04.04.04.07l.02,1.51.56-.18s.02,0,.03,0l-.03-1.46c0-.17-.1-.33-.25-.41l-.84-.48s-.05-.07-.03-.11l.48-.99-.21-.29s-.02-.09.02-.12c.04-.03.09-.02.12.02l.73,1.01s.09.07.14.05l1.54-.36c.06-.01.12-.05.15-.11.03-.06.04-.12.02-.19-.02-.07-.08-.13-.16-.15h0s-.08-.01-.12,0l-1.24.3s-.06,0-.08-.03l-.92-1.14c-.09-.11-.23-.16-.37-.14h0c-.11.02-.2.09-.26.19" fill="#f6f7f2"/>
        </g>
      </g>
    </g>
  </g>
</svg>